<svg width="56" height="56" viewBox="0 0 56 56" fill="none" xmlns="http://www.w3.org/2000/svg">
    <circle cx="19" cy="19" r="17" fill="#747489"/>
    <path d="M19 36C28.3888 36 36 28.3888 36 19C36 18.8009 35.9966 18.6026 35.9898 18.4052C33.7723 16.3602 30.8098 15.1111 27.5555 15.1111C20.6827 15.1111 15.1111 20.6827 15.1111 27.5555C15.1111 30.8098 16.3602 33.7723 18.4052 35.9898C18.6026 35.9966 18.8009 36 19 36Z"
          fill="#3B3B46"/>
    <path fill-rule="evenodd" clip-rule="evenodd"
          d="M12 27.5556C12 18.9645 18.9645 12 27.5556 12C36.1467 12 43.1111 18.9645 43.1111 27.5556C43.1111 31.4312 41.6938 34.9758 39.3492 37.6992L41.7291 40.0792C42.5075 39.8713 43.3725 40.0727 43.9832 40.6834L53.3166 50.0168C54.2278 50.928 54.2278 52.4054 53.3166 53.3166C52.4054 54.2278 50.928 54.2278 50.0168 53.3166L40.6834 43.9832C40.0727 43.3725 39.8713 42.5075 40.0792 41.7291L37.6992 39.3492C34.9758 41.6938 31.4312 43.1111 27.5556 43.1111C18.9645 43.1111 12 36.1467 12 27.5556ZM27.5556 15.1111C20.6827 15.1111 15.1111 20.6827 15.1111 27.5556C15.1111 34.4284 20.6827 40 27.5556 40C34.4284 40 40 34.4284 40 27.5556C40 20.6827 34.4284 15.1111 27.5556 15.1111Z"
          fill="#535362"/>
    <path d="M23.042 32.6817C22.7716 32.9883 22.9389 33.5018 23.3817 33.5018C23.894 33.5018 25.732 32.7261 27.5554 32.7261C29.5966 32.7261 31.6175 33.5018 31.7291 33.5018C32.1737 33.5018 32.3358 32.9883 32.0723 32.6817C29.6268 29.8606 25.4837 29.8606 23.042 32.6817Z"
          fill="#E3E3FF"/>
    <circle cx="21.7223" cy="26.1548" r="1.94444" fill="#E3E3FF"/>
    <circle cx="33.3888" cy="26.1547" r="1.94444" fill="#E3E3FF"/>
</svg>
