<svg width="320" height="320" viewBox="0 0 320 320" fill="none" xmlns="http://www.w3.org/2000/svg">
<path d="M0 107.789C0 70.0596 0 51.1947 7.34272 36.7838C13.8016 24.1076 24.1076 13.8016 36.7838 7.34272C51.1947 0 70.0596 0 107.789 0H212.211C249.94 0 268.805 0 283.216 7.34272C295.892 13.8016 306.198 24.1076 312.657 36.7838C320 51.1947 320 70.0596 320 107.789V212.211C320 249.94 320 268.805 312.657 283.216C306.198 295.892 295.892 306.198 283.216 312.657C268.805 320 249.94 320 212.211 320H107.789C70.0596 320 51.1947 320 36.7838 312.657C24.1076 306.198 13.8016 295.892 7.34272 283.216C0 268.805 0 249.94 0 212.211V107.789Z" fill="#666DE3"/>
<path d="M138 175.265H154.842C192.046 175.265 222.211 145.103 222.211 107.896V71.3159C203.607 71.3159 188.526 81.3974 188.526 100.001V107.896C188.526 126.5 173.444 141.58 154.842 141.58H138V175.265Z" fill="white"/>
<path d="M188.5 256.5H222.211C222.211 231.236 222.211 262.707 222.211 225.5V188.92C203.607 188.92 188.526 199.001 188.526 217.604V225.5C188.526 244.103 188.526 237.92 188.526 254.5L188.5 256.5Z" fill="white"/>
<path d="M90 71.1963V256.459H123.684V222.775V104.88C123.684 86.2772 108.603 71.1963 90 71.1963Z" fill="white"/>
</svg>
