<svg width="32" height="32" viewBox="0 0 32 32" fill="none" xmlns="http://www.w3.org/2000/svg">
    <rect width="32" height="32" fill="#F2D061"/>
    <path d="M16 10.9897L12.4489 14.5408L10.3827 12.4745L16 6.85712L21.6192 12.4763L19.5529 14.5426L16 10.9897Z" fill="#0B0B0D"/>
    <path d="M8.92346 18.0663L6.85718 16L8.92346 13.9337L10.9897 16L8.92346 18.0663Z" fill="#0B0B0D"/>
    <path d="M10.3799 19.5227L12.4489 17.4592L16 21.0103L19.5529 17.4564L21.6192 19.5227V19.5236L16 25.1428L10.3827 19.5255L10.3799 19.5227Z" fill="#0B0B0D"/>
    <path d="M23.0766 18.0663L21.0103 16L23.0766 13.9337L25.1429 16L23.0766 18.0663Z" fill="#0B0B0D"/>
    <path d="M18.0965 15.9981H18.0956V15.9991L18.0974 16L18.0965 16.0009L15.9991 18.0973L13.9054 16.0027L13.9017 16L13.9054 15.9972L14.272 15.6297L14.4503 15.4514L16 13.9026L18.0965 15.9981Z" fill="#0B0B0D"/>
</svg>
