<svg width="32" height="32" viewBox="0 0 32 32" fill="none" xmlns="http://www.w3.org/2000/svg">
    <rect width="32" height="32" fill="#F3AC56"/>
    <path fill-rule="evenodd" clip-rule="evenodd" d="M21.4912 14.1232C21.7435 12.4389 20.4602 11.5333 18.7068 10.929L19.2757 8.64689L17.8871 8.30136L17.3327 10.5232C16.9678 10.4316 16.5934 10.3464 16.2197 10.2613L16.7782 8.02493L15.3896 7.67859L14.8207 9.95993C14.5186 9.89082 14.2212 9.82332 13.9336 9.751L13.9352 9.74377L12.0195 9.26564L11.6498 10.749C11.6498 10.749 12.6808 10.9853 12.6591 10.9997C13.2216 11.1404 13.3228 11.5124 13.306 11.8081L12.6583 14.4077C12.6969 14.4173 12.7467 14.4318 12.8029 14.4535L12.6559 14.4173L11.7478 18.0591C11.6787 18.2295 11.5044 18.4858 11.1106 18.3886C11.1251 18.4087 10.1013 18.1371 10.1013 18.1371L9.41187 19.7265L11.2199 20.1773C11.5558 20.2617 11.8853 20.3501 12.2091 20.4329L11.6345 22.7407L13.0223 23.0863L13.5912 20.8041C13.9705 20.9062 14.3386 21.001 14.6986 21.091L14.1312 23.3635L15.5198 23.709L16.0944 21.406C18.4633 21.8544 20.244 21.6736 20.9937 19.5313C21.598 17.8068 20.964 16.8112 19.7177 16.1627C20.6257 15.9538 21.3087 15.3567 21.4912 14.1232ZM18.317 18.5734C17.8887 20.2987 14.9838 19.3657 14.042 19.1319L14.8054 16.0743C15.7472 16.3097 18.7662 16.775 18.317 18.5734ZM18.747 14.0983C18.3556 15.6677 15.9385 14.8697 15.155 14.6745L15.8461 11.9022C16.6295 12.0974 19.1552 12.4614 18.747 14.0983Z" fill="#0B0B0D"/>
</svg>
