<svg width="32" height="32" viewBox="0 0 32 32" fill="none" xmlns="http://www.w3.org/2000/svg">
    <rect width="32" height="32" fill="#30BFA0"/>
    <path fill-rule="evenodd" clip-rule="evenodd" d="M21.5873 9.14283C21.5873 9.20255 21.585 9.26173 21.5805 9.32029C21.5215 11.1967 21.0903 12.6418 20.811 13.3935C23.4112 14.513 25.1429 16.5129 25.1429 18.7936C25.1429 22.3002 21.0495 25.1428 16 25.1428C10.9506 25.1428 6.85718 22.3002 6.85718 18.7936C6.85718 16.5129 8.58891 14.513 11.1891 13.3935C10.9098 12.6418 10.4786 11.1967 10.4195 9.32029C10.415 9.26173 10.4127 9.20255 10.4127 9.14283C10.4127 9.11803 10.4131 9.09332 10.4139 9.06871C10.4131 9.00918 10.4127 8.94923 10.4127 8.88889H10.4267C10.553 7.74603 11.5219 6.85712 12.6984 6.85712C13.875 6.85712 14.8439 7.74603 14.9702 8.88889H14.9842V12.4832C15.3177 12.4576 15.6567 12.4444 16 12.4444C16.3434 12.4444 16.6824 12.4576 17.0159 12.4832V8.88889H17.0299C17.1562 7.74603 18.1251 6.85712 19.3016 6.85712C20.4782 6.85712 21.4471 7.74603 21.5734 8.88889H21.5873C21.5873 8.94923 21.5869 9.00918 21.5862 9.06871C21.5869 9.09332 21.5873 9.11803 21.5873 9.14283ZM13.9669 17.9786C14.0109 18.819 13.5924 19.5241 13.0322 19.5534C12.4719 19.5828 11.982 18.9253 11.9379 18.0849C11.8939 17.2445 12.3124 16.5394 12.8727 16.51C13.4329 16.4806 13.9229 17.1381 13.9669 17.9786ZM20.0621 18.0849C20.0181 18.9253 19.5282 19.5828 18.9679 19.5534C18.4076 19.5241 17.9891 18.819 18.0332 17.9786C18.0772 17.1381 18.5671 16.4806 19.1274 16.51C19.6877 16.5394 20.1062 17.2445 20.0621 18.0849Z" fill="#0B0B0D"/>
</svg>
