<svg width="32" height="32" viewBox="0 0 32 32" fill="none" xmlns="http://www.w3.org/2000/svg">
    <rect width="32" height="32" fill="#F2D061"/>
    <path d="M15.966 8.78192H10.0544V13.4682H8V15.1473H10.0544V16.9094H8V18.5876H10.0544V23.218H15.966C19.5209 23.218 22.2259 21.3278 23.2662 18.5885H25.1429V16.9103H23.6776C23.7137 16.6126 23.7317 16.3076 23.7317 15.9991V15.9576C23.7317 15.6833 23.7173 15.4126 23.6893 15.1473H25.1429V13.4691H23.3014C22.2872 10.6893 19.5615 8.78192 15.966 8.78192ZM21.4553 18.5885C20.5468 20.4607 18.5943 21.7121 15.966 21.7121H11.7074V18.5885H21.4553ZM21.9642 15.1473C22.0021 15.4243 22.022 15.7085 22.022 15.9991V16.0397C22.022 16.3365 22.0012 16.6261 21.9615 16.9094H11.7065V15.1473H21.9651H21.9642ZM15.9669 10.2851C18.6069 10.2851 20.5657 11.5699 21.4689 13.4682H11.7065V10.2851H15.9651H15.9669Z" fill="#0B0B0D"/>
</svg>
