<svg width="32" height="32" viewBox="0 0 32 32" fill="none" xmlns="http://www.w3.org/2000/svg">
    <rect width="32" height="32" fill="#3B3B46"/>
    <path d="M15.5607 19.2922C16.2983 19.2922 16.6671 18.8475 16.7756 18.1315C16.8624 17.1444 17.2095 16.6237 18.6305 15.7993C20.1058 14.9207 20.9302 13.7817 20.9302 12.122C20.9302 9.67051 18.9125 8 15.9729 8C13.7383 8 12.0461 8.91119 11.3736 10.3864C11.1675 10.7986 11.0698 11.2 11.0698 11.6664C11.0698 12.3932 11.5146 12.8488 12.263 12.8488C12.8597 12.8488 13.261 12.5776 13.4997 11.9051C13.8468 10.8095 14.6495 10.2129 15.8536 10.2129C17.1878 10.2129 18.1098 11.0373 18.1098 12.2197C18.1098 13.261 17.6542 13.8576 16.3091 14.6712C14.9532 15.4739 14.2807 16.3634 14.2807 17.7085V17.9146C14.2807 18.7064 14.7363 19.2922 15.5607 19.2922ZM15.5824 24C16.461 24 17.1552 23.3166 17.1552 22.4597C17.1552 21.6027 16.461 20.9302 15.5824 20.9302C14.7037 20.9302 13.9986 21.6027 13.9986 22.4597C13.9986 23.3166 14.7037 24 15.5824 24Z" fill="#747489"/>
</svg>
