<svg width="32" height="32" viewBox="0 0 32 32" fill="none" xmlns="http://www.w3.org/2000/svg">
    <rect width="32" height="32" fill="#5998E2"/>
    <path d="M19.3433 17.773C19.3433 16 18.2795 15.3922 16.152 15.1389C14.6323 14.9363 14.3283 14.5311 14.3283 13.8218C14.3283 13.1125 14.8349 12.6567 15.848 12.6567C16.7598 12.6567 17.2664 12.9607 17.5197 13.7205C17.5704 13.8725 17.7224 13.9738 17.8743 13.9738H18.6847C18.8874 13.9738 19.0394 13.8218 19.0394 13.6192V13.5685C18.8367 12.4541 17.9249 11.593 16.7598 11.4917V10.2759C16.7598 10.0733 16.6079 9.9213 16.3546 9.87061H15.5948C15.3921 9.87061 15.2402 10.0226 15.1895 10.2759V11.441C13.6698 11.6437 12.7074 12.6567 12.7074 13.9232C12.7074 15.5948 13.7205 16.2533 15.848 16.5066C17.2664 16.7599 17.7224 17.0638 17.7224 17.8744C17.7224 18.6849 17.0131 19.2421 16.0507 19.2421C14.7336 19.2421 14.2777 18.6848 14.1257 17.9249C14.0751 17.7224 13.9231 17.621 13.7712 17.621H12.9099C12.7074 17.621 12.5554 17.773 12.5554 17.9756V18.0263C12.758 19.2926 13.5685 20.2045 15.2402 20.4578V21.6736C15.2402 21.8761 15.3921 22.0281 15.6454 22.0788H16.4052C16.6079 22.0788 16.7598 21.9268 16.8105 21.6736V20.4578C18.3302 20.2045 19.3433 19.1407 19.3433 17.773Z" fill="#0B0B0D"/>
    <path d="M13.4166 23.0918C9.46538 21.6735 7.43909 17.2664 8.9082 13.3658C9.66804 11.2383 11.3397 9.61731 13.4166 8.85747C13.6192 8.7562 13.7205 8.60423 13.7205 8.35087V7.64172C13.7205 7.43905 13.6192 7.28709 13.4166 7.23651C13.3659 7.23651 13.2646 7.23651 13.2139 7.28709C8.4016 8.80677 5.76743 13.9231 7.28712 18.7354C8.19893 21.5721 10.3772 23.7504 13.2139 24.6622C13.4166 24.7635 13.6192 24.6622 13.6698 24.4595C13.7205 24.409 13.7205 24.3583 13.7205 24.257V23.5477C13.7205 23.3958 13.5685 23.1932 13.4166 23.0918ZM18.7862 7.28709C18.5835 7.18581 18.3808 7.28709 18.3303 7.48975C18.2796 7.54045 18.2796 7.59102 18.2796 7.69242V8.40156C18.2796 8.60423 18.4315 8.80677 18.5835 8.90817C22.5347 10.3265 24.561 14.7335 23.0919 18.6342C22.332 20.7617 20.6604 22.3827 18.5835 23.1425C18.3808 23.2438 18.2796 23.3958 18.2796 23.6491V24.3583C18.2796 24.5609 18.3808 24.7129 18.5835 24.7635C18.6342 24.7635 18.7355 24.7635 18.7862 24.7129C23.5985 23.1932 26.2326 18.0769 24.7129 13.2646C23.8011 10.3772 21.5722 8.1989 18.7862 7.28709Z" fill="#0B0B0D"/>
</svg>
