<svg width="32" height="32" viewBox="0 0 32 32" fill="none" xmlns="http://www.w3.org/2000/svg">
    <rect width="32" height="32" fill="#30BFA0"/>
    <path fill-rule="evenodd" clip-rule="evenodd" d="M17.2587 13.9408V12.0395H21.6093V9.14026H9.76381V12.0395H14.1143V13.94C10.5786 14.1023 7.91962 14.803 7.91962 15.642C7.91962 16.4809 10.5786 17.1808 14.1143 17.3439V23.4366H17.2587V17.3423C20.7888 17.18 23.4414 16.4801 23.4414 15.642C23.4414 14.8038 20.7888 14.1039 17.2587 13.9408ZM17.2587 16.824V16.8256C20.3766 16.6874 22.7029 16.145 22.7029 15.4941C22.7029 14.8448 20.3766 14.3008 17.2587 14.1618V16.2856C17.1679 16.2937 16.6818 16.3338 15.7118 16.3338C14.9035 16.3338 14.3185 16.2993 14.1143 16.2848V14.1602C10.9901 14.3 8.6581 14.844 8.6581 15.4941C8.6581 16.145 10.9901 16.689 14.1143 16.8264V16.824C14.3152 16.8337 14.8866 16.8578 15.6982 16.8578C16.7147 16.8578 17.1703 16.8304 17.2587 16.824Z" fill="#0B0B0D"/>
</svg>
