<svg width="169" height="32" viewBox="0 0 169 32" fill="none" xmlns="http://www.w3.org/2000/svg">
<path d="M0 10.7789C0 7.00596 0 5.11947 0.733671 3.67838C1.37903 2.41076 2.40879 1.38016 3.67537 0.734272C5.11528 0 7.00022 0 10.7701 0H21.2037C24.9736 0 26.8585 0 28.2984 0.734272C29.565 1.38016 30.5948 2.41076 31.2401 3.67838C31.9738 5.11947 31.9738 7.00596 31.9738 10.7789V21.2211C31.9738 24.994 31.9738 26.8805 31.2401 28.3216C30.5948 29.5892 29.565 30.6198 28.2984 31.2657C26.8585 32 24.9736 32 21.2037 32H10.7701C7.00022 32 5.11528 32 3.67537 31.2657C2.40879 30.6198 1.37903 29.5892 0.733671 28.3216C0 26.8805 0 24.994 0 21.2211V10.7789Z" fill="#666DE3"/>
<path d="M13.7891 17.5265H15.4719C19.1892 17.5265 22.2032 14.5103 22.2032 10.7896V7.13159C20.3444 7.13159 18.8376 8.13974 18.8376 10.0001V10.7896C18.8376 12.65 17.3306 14.158 15.4719 14.158H13.7891V17.5265Z" fill="white"/>
<path d="M18.8349 25.65H22.2032C22.2032 23.1236 22.2032 26.2707 22.2032 22.55V18.892C20.3444 18.892 18.8376 19.9001 18.8376 21.7604V22.55C18.8376 24.4103 18.8376 23.792 18.8376 25.45L18.8349 25.65Z" fill="white"/>
<path d="M8.99219 7.11963V25.6459H12.3578V22.2775V10.488C12.3578 8.62772 10.851 7.11963 8.99219 7.11963Z" fill="white"/>
<path d="M41.4917 25V7.54545H45.182V14.7472H52.6735V7.54545H56.3553V25H52.6735V17.7898H45.182V25H41.4917ZM65.2956 25.2557C63.949 25.2557 62.79 24.983 61.8184 24.4375C60.8525 23.8864 60.1081 23.108 59.5854 22.1023C59.0627 21.0909 58.8013 19.8949 58.8013 18.5142C58.8013 17.1676 59.0627 15.9858 59.5854 14.9688C60.1081 13.9517 60.8439 13.1591 61.7928 12.5909C62.7473 12.0227 63.8667 11.7386 65.1507 11.7386C66.0144 11.7386 66.8184 11.8778 67.5627 12.1562C68.3127 12.429 68.9661 12.8409 69.5229 13.392C70.0854 13.9432 70.5229 14.6364 70.8354 15.4716C71.1479 16.3011 71.3042 17.2727 71.3042 18.3864V19.3835H60.2502V17.1335H67.8865C67.8865 16.6108 67.7729 16.1477 67.5456 15.7443C67.3184 15.3409 67.003 15.0256 66.5996 14.7983C66.2019 14.5653 65.7388 14.4489 65.2104 14.4489C64.6593 14.4489 64.1706 14.5767 63.7445 14.8324C63.324 15.0824 62.9945 15.4205 62.7559 15.8466C62.5172 16.267 62.3951 16.7358 62.3894 17.2528V19.392C62.3894 20.0398 62.5087 20.5994 62.7473 21.071C62.9917 21.5426 63.3354 21.9062 63.7786 22.1619C64.2218 22.4176 64.7473 22.5455 65.3553 22.5455C65.7587 22.5455 66.128 22.4886 66.4632 22.375C66.7985 22.2614 67.0854 22.0909 67.324 21.8636C67.5627 21.6364 67.7445 21.358 67.8695 21.0284L71.2275 21.25C71.057 22.0568 70.7076 22.7614 70.1792 23.3636C69.6564 23.9602 68.9803 24.4261 68.1507 24.7614C67.3269 25.0909 66.3752 25.2557 65.2956 25.2557ZM78.4973 25.2131C77.503 25.2131 76.6025 24.9574 75.7956 24.446C74.9945 23.929 74.3581 23.1705 73.8865 22.1705C73.4206 21.1648 73.1877 19.9318 73.1877 18.4716C73.1877 16.9716 73.4292 15.7244 73.9121 14.7301C74.3951 13.7301 75.0371 12.983 75.8382 12.4886C76.6451 11.9886 77.5286 11.7386 78.4888 11.7386C79.2218 11.7386 79.8326 11.8636 80.3212 12.1136C80.8155 12.358 81.2132 12.6648 81.5144 13.0341C81.8212 13.3977 82.0542 13.7557 82.2132 14.108H82.324V7.54545H85.9462V25H82.3667V22.9034H82.2132C82.0428 23.267 81.8013 23.6278 81.4888 23.9858C81.182 24.3381 80.7814 24.6307 80.2871 24.8636C79.7985 25.0966 79.2019 25.2131 78.4973 25.2131ZM79.6479 22.3239C80.2331 22.3239 80.7275 22.1648 81.1309 21.8466C81.54 21.5227 81.8525 21.071 82.0684 20.4915C82.29 19.9119 82.4007 19.233 82.4007 18.4545C82.4007 17.6761 82.2928 17 82.0769 16.4261C81.861 15.8523 81.5485 15.4091 81.1394 15.0966C80.7303 14.7841 80.2331 14.6278 79.6479 14.6278C79.0513 14.6278 78.5485 14.7898 78.1394 15.1136C77.7303 15.4375 77.4206 15.8864 77.2104 16.4602C77.0002 17.0341 76.8951 17.6989 76.8951 18.4545C76.8951 19.2159 77.0002 19.8892 77.2104 20.4744C77.4263 21.054 77.736 21.5085 78.1394 21.8381C78.5485 22.1619 79.0513 22.3239 79.6479 22.3239ZM94.829 30.1818C93.6529 30.1818 92.6444 30.0199 91.8034 29.696C90.9682 29.3778 90.3034 28.9432 89.8091 28.392C89.3148 27.8409 88.9938 27.2216 88.8461 26.5341L92.204 26.0824C92.3063 26.3438 92.4682 26.5881 92.6898 26.8153C92.9114 27.0426 93.204 27.2244 93.5676 27.3608C93.937 27.5028 94.3858 27.5739 94.9142 27.5739C95.704 27.5739 96.3546 27.3807 96.8659 26.9943C97.383 26.6136 97.6415 25.9744 97.6415 25.0767V22.6818H97.4881C97.329 23.0455 97.0904 23.3892 96.7722 23.7131C96.454 24.0369 96.0449 24.3011 95.5449 24.5057C95.0449 24.7102 94.4483 24.8125 93.7551 24.8125C92.7722 24.8125 91.8773 24.5852 91.0705 24.1307C90.2694 23.6705 89.6301 22.9687 89.1529 22.0256C88.6813 21.0767 88.4455 19.8778 88.4455 18.429C88.4455 16.946 88.687 15.7074 89.1699 14.7131C89.6529 13.7187 90.2949 12.9744 91.0961 12.4801C91.9029 11.9858 92.7864 11.7386 93.7466 11.7386C94.4796 11.7386 95.0932 11.8636 95.5875 12.1136C96.0819 12.358 96.4796 12.6648 96.7807 13.0341C97.0875 13.3977 97.3233 13.7557 97.4881 14.108H97.6245V11.9091H101.23V25.1278C101.23 26.2415 100.957 27.1733 100.411 27.9233C99.8659 28.6733 99.1103 29.2358 98.1444 29.6108C97.1841 29.9915 96.079 30.1818 94.829 30.1818ZM94.9057 22.0852C95.4909 22.0852 95.9853 21.9403 96.3887 21.6506C96.7978 21.3551 97.1103 20.9347 97.3262 20.3892C97.5478 19.8381 97.6586 19.179 97.6586 18.4119C97.6586 17.6449 97.5506 16.9801 97.3347 16.4176C97.1188 15.8494 96.8063 15.4091 96.3972 15.0966C95.9881 14.7841 95.4909 14.6278 94.9057 14.6278C94.3091 14.6278 93.8063 14.7898 93.3972 15.1136C92.9881 15.4318 92.6784 15.875 92.4682 16.4432C92.258 17.0114 92.1529 17.6676 92.1529 18.4119C92.1529 19.1676 92.258 19.821 92.4682 20.3722C92.6841 20.9176 92.9938 21.3409 93.3972 21.642C93.8063 21.9375 94.3091 22.0852 94.9057 22.0852ZM110.085 25.2557C108.738 25.2557 107.579 24.983 106.607 24.4375C105.642 23.8864 104.897 23.108 104.374 22.1023C103.852 21.0909 103.59 19.8949 103.59 18.5142C103.59 17.1676 103.852 15.9858 104.374 14.9688C104.897 13.9517 105.633 13.1591 106.582 12.5909C107.536 12.0227 108.656 11.7386 109.94 11.7386C110.803 11.7386 111.607 11.8778 112.352 12.1562C113.102 12.429 113.755 12.8409 114.312 13.392C114.874 13.9432 115.312 14.6364 115.624 15.4716C115.937 16.3011 116.093 17.2727 116.093 18.3864V19.3835H105.039V17.1335H112.676C112.676 16.6108 112.562 16.1477 112.335 15.7443C112.107 15.3409 111.792 15.0256 111.389 14.7983C110.991 14.5653 110.528 14.4489 109.999 14.4489C109.448 14.4489 108.96 14.5767 108.534 14.8324C108.113 15.0824 107.784 15.4205 107.545 15.8466C107.306 16.267 107.184 16.7358 107.178 17.2528V19.392C107.178 20.0398 107.298 20.5994 107.536 21.071C107.781 21.5426 108.124 21.9062 108.568 22.1619C109.011 22.4176 109.536 22.5455 110.144 22.5455C110.548 22.5455 110.917 22.4886 111.252 22.375C111.588 22.2614 111.874 22.0909 112.113 21.8636C112.352 21.6364 112.534 21.358 112.659 21.0284L116.017 21.25C115.846 22.0568 115.497 22.7614 114.968 23.3636C114.445 23.9602 113.769 24.4261 112.94 24.7614C112.116 25.0909 111.164 25.2557 110.085 25.2557ZM118.531 25V7.54545H122.221V14.7472H129.713V7.54545H133.394V25H129.713V17.7898H122.221V25H118.531ZM136.369 25V11.9091H139.999V25H136.369ZM138.193 10.2216C137.653 10.2216 137.19 10.0426 136.803 9.68466C136.423 9.32102 136.232 8.88636 136.232 8.38068C136.232 7.88068 136.423 7.4517 136.803 7.09375C137.19 6.73011 137.653 6.54829 138.193 6.54829C138.732 6.54829 139.193 6.73011 139.573 7.09375C139.96 7.4517 140.153 7.88068 140.153 8.38068C140.153 8.88636 139.96 9.32102 139.573 9.68466C139.193 10.0426 138.732 10.2216 138.193 10.2216ZM155.112 11.9091L150.536 25H146.445L141.868 11.9091H145.703L148.422 21.2756H148.558L151.269 11.9091H155.112ZM162.514 25.2557C161.168 25.2557 160.009 24.983 159.037 24.4375C158.071 23.8864 157.327 23.108 156.804 22.1023C156.281 21.0909 156.02 19.8949 156.02 18.5142C156.02 17.1676 156.281 15.9858 156.804 14.9688C157.327 13.9517 158.063 13.1591 159.012 12.5909C159.966 12.0227 161.085 11.7386 162.369 11.7386C163.233 11.7386 164.037 11.8778 164.781 12.1562C165.531 12.429 166.185 12.8409 166.742 13.392C167.304 13.9432 167.742 14.6364 168.054 15.4716C168.367 16.3011 168.523 17.2727 168.523 18.3864V19.3835H157.469V17.1335H165.105C165.105 16.6108 164.992 16.1477 164.764 15.7443C164.537 15.3409 164.222 15.0256 163.818 14.7983C163.421 14.5653 162.958 14.4489 162.429 14.4489C161.878 14.4489 161.389 14.5767 160.963 14.8324C160.543 15.0824 160.213 15.4205 159.975 15.8466C159.736 16.267 159.614 16.7358 159.608 17.2528V19.392C159.608 20.0398 159.727 20.5994 159.966 21.071C160.21 21.5426 160.554 21.9062 160.997 22.1619C161.441 22.4176 161.966 22.5455 162.574 22.5455C162.977 22.5455 163.347 22.4886 163.682 22.375C164.017 22.2614 164.304 22.0909 164.543 21.8636C164.781 21.6364 164.963 21.358 165.088 21.0284L168.446 21.25C168.276 22.0568 167.926 22.7614 167.398 23.3636C166.875 23.9602 166.199 24.4261 165.369 24.7614C164.546 25.0909 163.594 25.2557 162.514 25.2557Z" fill="white"/>
</svg>
